Coordinates
version=1
nRows=9
nColumns=38
inDegrees=yes

Units are S.I. units (second, meters, Newtons, ...)
Angles are in degrees.

endheader
time	pelvis_tilt	pelvis_list	pelvis_rotation	pelvis_tx	pelvis_ty	pelvis_tz	hip_flexion_r	hip_adduction_r	hip_rotation_r	knee_angle_r	ankle_angle_r	subtalar_angle_r	mtp_angle_r	hip_flexion_l	hip_adduction_l	hip_rotation_l	knee_angle_l	ankle_angle_l	subtalar_angle_l	mtp_angle_l	lumbar_extension	lumbar_bending	lumbar_rotation	arm_flex_r	arm_add_r	arm_rot_r	elbow_flex_r	pro_sup_r	wrist_flex_r	wrist_dev_r	arm_flex_l	arm_add_l	arm_rot_l	elbow_flex_l	pro_sup_l	wrist_flex_l	wrist_dev_l
      1.60000000	      0.42703897	     -2.23668593	     -0.70544114	     -0.21259471	      0.89575063	     -0.24839918	    -18.12186090	      5.96904119	     -5.36010203	    -14.34358026	     11.32089589	      8.99818144	      7.65234440	     29.88457515	     -0.13252762	     -0.25607310	    -13.39000229	      4.40630034	      4.34030762	      8.96987294	     -7.81389341	      4.46252905	      5.61663520	      8.44966652	    -23.89265424	     17.93196753	     38.00845493	     86.51662706	      0.00000000	      0.00000000	     -5.29616284	    -11.92078161	     31.54176652	      6.16300077	     86.51662706	      0.00000000	      0.00000000
      1.61000000	      0.33310851	     -1.99219073	     -0.90079110	     -0.19708113	      0.89435573	     -0.24889062	    -18.40401799	      5.44200265	     -5.47719051	    -15.42038222	     10.54934067	      9.46240513	      9.26660105	     29.98966642	      0.30400838	     -0.20375631	    -14.58918526	      3.89819710	      4.54180245	      8.94500917	     -7.57729178	      4.13220041	      5.81162815	      8.03611627	    -23.93158748	     17.36926184	     38.49160962	     86.51662706	      0.00000000	      0.00000000	     -5.60241914	    -11.88293001	     31.79888136	      5.80977441	     86.51662706	      0.00000000	      0.00000000
      1.62000000	      0.20703536	     -1.68893853	     -1.06010113	     -0.18120787	      0.89286552	     -0.24941502	    -18.60385818	      4.85732090	     -5.61557003	    -16.60156146	      9.56909955	      9.84544791	     11.18543476	     30.00886949	      0.85056358	     -0.01195297	    -15.91347550	      3.07731547	      4.20878082	      8.86235472	     -7.26211892	      3.72211749	      5.94806126	      7.52409890	    -23.91571166	     16.75071062	     38.92539785	     86.51662706	      0.00000000	      0.00000000	     -5.92064213	    -11.87436326	     32.06477556	      5.48362243	     86.51662706	      0.00000000	      0.00000000
      1.63000000	      0.04752673	     -1.33308860	     -1.16665330	     -0.16507408	      0.89118876	     -0.24998809	    -18.70270902	      4.22858174	     -5.76818588	    -17.89968837	      8.32485713	     10.12080697	     13.37496890	     29.99694771	      1.49372840	      0.30112179	    -17.26779701	      1.95118102	      3.40182147	      8.72290198	     -6.86991758	      3.23682401	      6.00310416	      6.93545835	    -23.83910705	     16.08277885	     39.29454396	     86.51662706	      0.00000000	      0.00000000	     -6.23799517	    -11.89438395	     32.33336820	      5.18585013	     86.51662706	      0.00000000	      0.00000000
      1.64000000	     -0.13349400	     -0.91982236	     -1.20889461	     -0.14878874	      0.88946216	     -0.25064027	    -18.67481910	      3.55885165	     -5.92731339	    -19.33998106	      6.75465119	     10.26532045	     15.76897540	     30.01612235	      2.21448167	      0.71465312	    -18.61253242	      0.57768922	      2.21627869	      8.53573771	     -6.41838266	      2.67642288	      5.96298052	      6.29378515	    -23.69740514	     15.37285488	     39.58579024	     86.51662706	      0.00000000	      0.00000000	     -6.53538146	    -11.94106460	     32.59706760	      4.91993962	     86.51662706	      0.00000000	      0.00000000
      1.65000000	     -0.32461963	     -0.43775600	     -1.18314911	     -0.13250888	      0.88802062	     -0.25138823	    -18.48791511	      2.84296922	     -6.08382545	    -20.95537361	      4.80135236	     10.25793786	     18.27045607	     30.10225253	      2.99487498	      1.20757086	    -19.96365956	     -0.93736743	      0.77109388	      8.31588664	     -5.93642479	      2.03900099	      5.82820804	      5.62058101	    -23.48927879	     14.63001461	     39.78950690	     86.51662706	      0.00000000	      0.00000000	     -6.79174267	    -12.01183135	     32.84690487	      4.69154303	     86.51662706	      0.00000000	      0.00000000
      1.66000000	     -0.52260059	      0.12030186	     -1.09537521	     -0.11641863	      0.88715255	     -0.25221335	    -18.10957994	      2.07365793	     -6.22634349	    -22.78151067	      2.42842326	     10.07655583	     20.75802555	     30.24833572	      3.82345004	      1.75683992	    -21.36386269	     -2.45633473	     -0.80234191	      8.08024636	     -5.45663341	      1.32446365	      5.61520798	      4.93263868	    -23.21766334	     13.86600548	     39.90058749	     86.51662706	      0.00000000	      0.00000000	     -6.98825213	    -12.10446226	     33.07290617	      4.50806574	     86.51662706	      0.00000000	      0.00000000
      1.67000000	     -0.72442251	      0.74837903	     -0.96100483	     -0.10060528	      0.88688216	     -0.25307070	    -17.51660908	      1.24798121	     -6.33986315	    -24.85189417	     -0.36328344	      9.69389264	     23.09687643	     30.41752071	      4.69512115	      2.33436541	    -22.83724783	     -3.83291108	     -2.37146523	      7.84327071	     -5.00832111	      0.53809357	      5.35333198	      4.24149265	    -22.89020186	     13.09619272	     39.91838591	     86.51662706	      0.00000000	      0.00000000	     -7.11127780	    -12.21794773	     33.26470794	      4.37799729	     86.51662706	      0.00000000	      0.00000000
      1.68000000	     -0.91877672	      1.42683457	     -0.80236329	     -0.08501547	      0.88699147	     -0.25390419	    -16.70029197	      0.37191895	     -6.40415878	    -27.19223849	     -3.52195919	      9.07409557	     25.15322187	     30.56549708	      5.60606861	      2.90540954	    -24.35913155	     -4.93462968	     -3.81416497	      7.61413210	     -4.61338448	     -0.30747639	      5.07800964	      3.55506126	    -22.51869533	     12.34020408	     39.84565856	     86.51662706	      0.00000000	      0.00000000	     -7.15358378	    -12.35256941	     33.41233087	      4.31016053	     86.51662706	      0.00000000	      0.00000000
